<svg width="90" height="78" viewBox="0 0 90 78" fill="none" xmlns="http://www.w3.org/2000/svg">
<path d="M7.22945 23.5418C6.90509 26.9362 -0.313749 31.7186 0.0106086 43.8255C0.334966 55.9323 9.88466 77.0608 43.55 77.5964C77.2153 78.1244 89.5333 56.9959 89.6389 42.4451C89.737 28.9578 83.1668 26.28 82.4201 22.8026C81.7864 19.8305 87.5193 6.2377 74.6657 1.34971C59.4963 -4.42084 53.8464 10.1602 53.424 10.477C53.0016 10.7938 48.8604 11.005 45.2472 11.005C41.634 11.005 37.704 11.005 37.2816 10.5826C36.8591 10.1602 27.6187 -4.49627 14.2371 1.65898C1.6852 7.44461 7.44066 21.309 7.22945 23.5418Z" fill="#B7D019"/>
<path d="M74.3036 19.0083C74.3036 22.9987 72.0406 26.3705 68.254 26.2272C64.9877 26.1065 62.3401 22.9911 62.3401 19.0083C62.3401 15.0255 64.9877 11.8498 68.254 11.7895C72.1085 11.714 74.3036 15.018 74.3036 19.0083Z" fill="#2F2F2F"/>
<path d="M28.1468 18.4426C28.358 23.5418 25.8838 26.0914 22.0971 26.016C18.9139 25.9556 16.3945 23.6097 16.3266 18.7217C16.2662 14.6936 17.8126 11.5708 22.0971 11.4274C25.2804 11.3294 27.9808 14.4221 28.1468 18.4426Z" fill="#2F2F2F"/>
<path d="M36.746 34.9547C36.135 36.3049 34.4378 36.7273 33.2988 36.0711C32.1673 35.4148 31.858 33.6346 32.5973 32.3522C33.3365 31.0699 34.5962 30.8738 35.5165 31.2359C36.746 31.7186 37.6512 32.9557 36.746 34.9547Z" fill="#2F2F2F"/>
<path d="M57.1428 32.7294C57.7236 34.1324 57.0221 35.7769 55.6794 36.1767C54.3367 36.5764 52.896 35.7165 52.466 34.2607C52.0361 32.8048 52.5716 31.5376 53.8766 31.0171C54.729 30.6852 56.2829 30.655 57.1428 32.7294Z" fill="#2F2F2F"/>
<path d="M17.2468 46.1262L17.5335 48.1779C17.5335 48.1779 25.4614 56.4603 44.5758 56.747C64.1882 57.0412 72.6818 47.4764 72.6818 47.4764L63.9015 43.2296C63.9015 43.2296 55.5512 46.7673 44.787 46.5561C34.0229 46.3449 23.4096 43.2296 23.4096 43.2296L17.2468 46.1262Z" fill="#FF6011"/>
<path d="M75.4426 41.306C72.9684 37.6928 69.9889 40.9817 65.3196 42.7242C62.7323 43.6897 61.02 44.2479 61.02 44.2479C61.02 44.2479 64.8595 44.9947 66.5567 45.9149C68.2539 46.8352 71.2109 48.8492 71.2109 48.8492C71.2109 48.8492 77.5245 44.3535 75.4426 41.306Z" fill="#865B51"/>
<path d="M15.263 40.8836C12.2909 42.8675 17.541 48.1855 17.541 48.1855C17.541 48.1855 19.1628 46.6919 21.3579 45.7716C23.5529 44.8514 27.2265 44.1876 27.2265 44.1876C27.2265 44.1876 22.9796 43.2296 20.513 41.8039C19.2382 41.0798 16.9602 39.7522 15.263 40.8836Z" fill="#865B51"/>
</svg>
