<svg width="1920" height="1560" viewBox="0 0 1920 1560" fill="none" xmlns="http://www.w3.org/2000/svg">
<rect width="1920" height="1560" fill="#99E0FF"/>
<path fill-rule="evenodd" clip-rule="evenodd" d="M1944.56 828.441C1947.11 829.652 1949.66 831.017 1952.19 832.544C2041.91 886.495 1995.65 899.558 1944.83 913.911C1940.7 915.075 1936.55 916.247 1932.44 917.45V1768.24H-298.233V1046.62C-329.912 1038.21 -354 996.015 -354 945.222C-354 890.938 -341.32 828.891 -307.766 823.413C-304.51 819.577 -299.106 817.942 -294.077 819.715C-284.021 823.26 -269.379 830.163 -252.796 838.025L-250.025 839.339L-250.025 839.339C-233.78 847.044 -215.242 855.836 -195.695 864.258C-153.858 882.285 -109.508 897.643 -75.1654 897.643C-41.7008 897.643 -7.43719 879.848 30.5251 859.773L32.1114 858.934C68.0822 839.908 107.604 819.003 147.902 819.003C188.2 819.003 227.723 839.908 263.693 858.934L265.279 859.773C303.242 879.848 337.505 897.643 370.97 897.643C404.435 897.643 438.698 879.848 476.66 859.773L478.247 858.934C514.217 839.908 553.74 819.003 594.038 819.003C634.336 819.003 673.858 839.908 709.829 858.934L711.415 859.773C749.377 879.848 783.641 897.643 817.105 897.643C850.57 897.643 884.833 879.848 922.796 859.773L924.382 858.934C960.353 839.908 999.875 819.003 1040.17 819.003C1080.47 819.003 1119.99 839.908 1155.96 858.934L1157.55 859.773C1195.51 879.848 1229.78 897.643 1263.24 897.643C1296.71 897.643 1330.97 879.848 1368.93 859.773L1370.52 858.934C1406.49 839.908 1446.01 819.003 1486.31 819.003C1526.61 819.003 1566.13 839.908 1602.1 858.934L1603.69 859.773C1641.65 879.848 1675.91 897.643 1709.38 897.643C1723.67 897.643 1739.7 894.982 1756.56 890.575C1765.29 885.498 1773.71 880.53 1781.83 875.733C1839.95 841.416 1883.23 815.865 1922.85 821.773C1924.78 821 1926.6 820.31 1928.29 819.715C1934.8 817.419 1941.94 820.837 1944.23 827.347C1944.36 827.71 1944.47 828.075 1944.56 828.441Z" fill="#FEC0FF"/>
<path d="M1694.45 1249.64C1688.74 1237.71 1683.43 1225.49 1676.65 1214.11C1672.66 1207.4 1657.72 1189.97 1664.97 1193.81C1677.76 1200.6 1690.24 1208.25 1702.84 1215.36C1722.31 1226.35 1721.95 1222.55 1735.97 1202.36C1745.35 1188.85 1755.11 1174.54 1768.05 1163.3C1783.96 1149.48 1774.09 1179.64 1773.26 1185.68C1772.26 1192.87 1762.68 1218.32 1772.51 1214.96C1779.78 1212.47 1819 1194.87 1814.33 1198.3C1790.44 1215.86 1764.67 1228.13 1737.91 1240.94C1717.25 1250.83 1728.78 1257.7 1741.63 1266.39C1750.21 1272.19 1775.26 1288.97 1764.53 1286.69C1750.78 1283.77 1737.37 1278.93 1723.8 1275.6C1704.68 1270.89 1713.15 1303.28 1712.21 1312.24C1711.39 1320.18 1710.26 1349.26 1701.11 1330.16C1693.95 1315.19 1691.67 1270.83 1665.4 1281.87C1648.22 1289.08 1632.76 1297.4 1614.3 1300.11C1594.99 1302.93 1612.2 1286.15 1621.22 1281.67C1645.43 1269.62 1667.86 1256.31 1692.09 1244.71" stroke="#FFF7AC" stroke-opacity="0.5" stroke-width="10" stroke-linecap="round"/>
<path d="M1806.28 119.882C1815.75 129.122 1824.92 138.768 1835.2 147.128C1841.26 152.056 1861.28 163.291 1853.15 162.172C1838.81 160.198 1824.46 157.299 1810.19 154.953C1788.12 151.325 1789.76 154.768 1783.54 178.554C1779.38 194.464 1775.13 211.25 1766.84 226.259C1756.65 244.705 1755.55 212.993 1754.26 207.024C1752.72 199.936 1752.97 172.746 1744.9 179.278C1738.92 184.112 1708.15 214.124 1711.35 209.293C1727.74 184.593 1747.74 164.216 1768.46 142.991C1784.46 126.602 1771.27 124.114 1756.22 120.368C1746.17 117.867 1716.87 110.725 1727.73 109.174C1741.65 107.185 1755.91 107.122 1769.8 105.592C1789.36 103.437 1770.28 75.9306 1768.08 67.1974C1766.13 59.4585 1757.19 31.7577 1772.34 46.5515C1784.22 58.1494 1801.61 99.0254 1822.48 79.6312C1836.14 66.9496 1847.79 53.8218 1864.2 44.9401C1881.36 35.6502 1870.97 57.3206 1864.04 64.6348C1845.44 84.2717 1828.96 104.475 1810.19 123.695" stroke="#FFF7AC" stroke-opacity="0.5" stroke-width="10" stroke-linecap="round"/>
<path d="M146.772 1440.54C156.014 1431.08 165.662 1421.9 174.025 1411.62C178.954 1405.56 190.194 1385.55 189.073 1393.68C187.095 1408.02 184.194 1422.37 181.844 1436.64C178.211 1458.71 181.654 1457.07 205.439 1463.29C221.348 1467.46 238.133 1471.71 253.14 1480C271.584 1490.19 239.871 1491.29 233.902 1492.58C226.813 1494.12 199.624 1493.86 206.154 1501.94C210.986 1507.91 240.992 1538.7 236.161 1535.49C211.465 1519.09 191.093 1499.09 169.872 1478.36C153.487 1462.36 150.996 1475.55 147.247 1490.6C144.743 1500.65 137.595 1529.95 136.046 1519.09C134.061 1505.17 134.001 1490.91 132.474 1477.02C130.323 1457.45 102.812 1476.52 94.0787 1478.73C86.3393 1480.68 58.6365 1489.61 73.4338 1474.46C85.0344 1462.58 125.914 1445.21 106.525 1424.33C93.8466 1410.67 80.7215 1399.01 71.8436 1382.6C62.5577 1365.44 84.2257 1375.84 91.5383 1382.76C111.171 1401.37 131.371 1417.86 150.587 1436.63" stroke="#0055FE" stroke-opacity="0.3" stroke-width="10" stroke-linecap="round"/>
<path d="M1828.11 1505.21C1827.41 1464.84 1824.11 1424.74 1824.11 1384.32C1824.11 1362.93 1818.11 1426.82 1818.11 1448.21C1818.11 1459.4 1820.44 1467.99 1824.11 1478.1C1825.95 1483.17 1825.33 1488.23 1827.11 1493.21C1830.33 1502.22 1830.11 1502.41 1830.11 1491.32C1830.11 1483.2 1829.43 1476.07 1828.22 1468.21C1824 1440.79 1800.17 1445.21 1777.22 1445.21C1776.19 1445.21 1761 1445.56 1761 1444.76C1761 1441.99 1781.39 1443.21 1784.11 1443.21C1801.19 1443.21 1818.85 1444.64 1835.67 1441.65C1842.33 1440.47 1849.45 1439.21 1856.22 1439.21C1868.41 1439.21 1874.96 1441.21 1857.33 1441.21C1843.79 1441.21 1831.03 1445.21 1817.44 1445.21C1809.92 1445.21 1816.12 1442.71 1818.22 1437.1C1820.33 1431.48 1828.5 1425.73 1832.11 1420.32C1836.36 1413.94 1840.3 1412.2 1846 1407.21C1849.69 1403.98 1860.32 1394.28 1857.89 1398.54C1852.52 1407.95 1846.93 1418.26 1841 1427.32C1837.07 1433.33 1834.13 1438.94 1831 1445.21C1826.58 1454.04 1819.34 1460.63 1815.67 1469.65C1813.03 1476.12 1805.4 1481.85 1801.22 1487.65C1790.62 1502.38 1799.77 1479.98 1801.67 1474.1C1806.96 1457.64 1818.79 1438.6 1830.56 1425.65C1836.8 1418.78 1835.38 1419.7 1831.67 1426.99C1827.08 1435.98 1822.17 1445.13 1816.11 1453.21" stroke="#FF8E01" stroke-opacity="0.3" stroke-width="10" stroke-linecap="round"/>
<path d="M1848.46 706.122C1808.17 708.73 1768.27 713.917 1727.9 715.825C1706.53 716.835 1770.63 719.812 1792 718.802C1803.18 718.274 1811.65 715.547 1821.57 711.398C1826.55 709.317 1831.64 709.698 1836.53 707.688C1845.38 704.046 1845.57 704.257 1834.5 704.78C1826.38 705.164 1819.29 706.179 1811.5 707.758C1784.31 713.267 1789.85 736.861 1790.93 759.787C1790.98 760.823 1792.05 775.975 1791.26 776.012C1788.48 776.143 1788.74 755.723 1788.61 753C1787.81 735.943 1788.4 718.23 1784.62 701.576C1783.13 694.974 1781.53 687.925 1781.21 681.158C1780.64 668.984 1782.32 662.345 1783.16 679.954C1783.8 693.478 1788.39 706.041 1789.04 719.61C1789.39 727.124 1786.6 721.053 1780.9 719.216C1775.19 717.378 1769.06 709.483 1763.48 706.134C1756.91 702.188 1754.98 698.342 1749.73 692.88C1746.33 689.346 1736.14 679.184 1740.51 681.414C1750.16 686.337 1760.72 691.434 1770.05 696.925C1776.24 700.565 1781.99 703.235 1788.4 706.069C1797.43 710.063 1804.35 716.985 1813.54 720.232C1820.12 722.559 1826.21 729.913 1832.2 733.81C1847.41 743.71 1824.61 735.62 1818.64 734.006C1801.94 729.491 1782.37 718.578 1768.88 707.436C1761.73 701.522 1762.7 702.896 1770.16 706.264C1779.37 710.42 1788.74 714.895 1797.09 720.564" stroke="#0055FE" stroke-opacity="0.5" stroke-width="10" stroke-linecap="round"/>
<path d="M152.385 966.739C122.548 939.531 91.1286 914.4 61.7422 886.652C46.1897 871.967 88.5234 920.192 104.076 934.877C112.211 942.558 120.054 946.767 129.927 951.034C134.878 953.174 138.135 957.103 142.974 959.228C151.739 963.076 151.721 963.361 143.66 955.75C137.753 950.171 132.104 945.773 125.559 941.256C102.724 925.497 89.5801 945.859 73.8227 962.547C73.1107 963.301 62.9378 974.581 62.3623 974.037C60.3447 972.132 75.2271 958.147 77.098 956.165C88.8219 943.749 101.992 931.89 111.362 917.612C115.076 911.952 119.046 905.913 123.697 900.988C132.064 892.126 138.017 888.735 125.914 901.553C116.619 911.397 110.763 923.426 101.437 933.302C96.2725 938.772 98.7085 932.55 96.0734 927.168C93.4373 921.784 94.8677 911.89 93.4098 905.551C91.6916 898.081 93.125 894.025 93.4121 886.451C93.5979 881.55 93.8474 867.164 95.2729 871.857C98.4209 882.22 102.081 893.363 104.602 903.894C106.273 910.873 108.338 916.865 110.743 923.446C114.133 932.72 113.953 942.509 117.99 951.377C120.885 957.736 119.811 967.219 121.161 974.237C124.59 992.063 114.589 970.026 111.61 964.607C103.278 949.455 97.5522 927.783 96.2196 910.343C95.5122 901.085 95.2029 902.744 97.9519 910.451C101.345 919.963 104.625 929.816 106.338 939.764" stroke="#FFF7AC" stroke-opacity="0.5" stroke-width="10" stroke-linecap="round"/>
<path d="M1285.23 817.038C1280.78 810.78 1276.08 804.642 1272.18 798.024C1270.41 795.031 1266.18 790.023 1265.64 786.56C1265.39 785.007 1272.79 789.245 1273.1 789.446C1278.45 792.935 1284.06 797.372 1289.98 799.708C1294.24 801.392 1297.84 804.087 1301.53 801.461C1306.55 797.892 1311.49 794.183 1316.65 790.818C1322.95 786.711 1330.02 783.887 1336.26 779.752C1340.45 776.978 1335.14 787.796 1334.74 788.588C1331.03 795.872 1325.21 801.986 1320.85 808.873C1317.31 814.471 1330.77 820.041 1334.29 822.795C1338.76 826.29 1344.23 830.578 1349.33 832.814C1353.84 834.797 1343.31 834.465 1342.75 834.392C1336.58 833.588 1330.63 834.388 1324.47 833.653C1320.45 833.173 1310.89 829.327 1311.05 836.221C1311.17 841.494 1311.6 846.304 1311.25 851.582C1310.97 855.817 1310.96 859.967 1311.3 864.232C1311.59 867.976 1311.38 867.107 1309.76 864.712C1306.92 860.498 1304.55 856.064 1301.6 851.913C1300.42 850.255 1293.44 838.625 1292.52 838.709C1284.03 839.495 1278.1 843.348 1270.27 846.061C1267.19 847.128 1263.96 848.844 1260.8 849.581C1257.06 850.457 1264.28 841.118 1264.96 840.423C1272.38 832.823 1281.69 827.229 1288.83 819.463" stroke="#FF8E01" stroke-opacity="0.3" stroke-width="10" stroke-linecap="round"/>
</svg>
