<svg width="106" height="78" viewBox="0 0 106 78" fill="none" xmlns="http://www.w3.org/2000/svg">
<path d="M64.2158 63.9891C64.2534 63.8125 64.2534 59.501 63.4055 57.8037C63.0835 57.1601 63.0352 56.3855 63.2552 55.6964C63.4109 55.2066 63.5343 54.694 63.6094 54.17C64.0763 51.0318 63.0245 48.0188 61.0067 45.9058C60.3895 45.2622 60.1104 44.3566 60.2446 43.4681V43.451C60.5881 41.1501 59.8904 38.9402 58.5059 37.3056C57.1374 35.6881 56.0587 33.8029 55.5113 31.7126C54.9157 29.4287 53.5633 26.6607 50.5366 25.2311C49.8175 24.8951 49.2754 24.2914 49.0232 23.5282C48.3363 21.4208 45.4813 18.63 43.1844 18.2769C42.9054 18.2313 42.6263 18.2085 42.3526 18.2085C41.6067 18.2029 40.367 17.8953 39.8894 17.3144C38.1829 15.2526 36.4334 14.1647 32.3494 14.0167V14.0053C32.2743 14.0053 32.1992 14.011 32.1241 14.011C32.0489 14.011 31.9738 14.0053 31.8987 14.0053V14.0167C27.8201 14.1647 26.1511 15.2526 24.4446 17.3144C23.9669 17.8953 22.7273 18.2029 21.9813 18.2085C21.7076 18.2085 21.4286 18.2313 21.1495 18.2769C18.8527 18.6357 15.9923 21.4208 15.3108 23.5282C15.0639 24.2914 14.5219 24.8951 13.7974 25.2311C10.7653 26.655 9.41832 29.4287 8.82263 31.7126C8.27525 33.8085 7.19658 35.6938 5.82812 37.3056C4.44892 38.9345 3.74591 41.1501 4.08936 43.451V43.4681C4.22353 44.3566 3.94447 45.2622 3.32732 45.9058C1.30951 48.0131 0.252303 51.0318 0.724556 54.17C0.805054 54.6997 0.923118 55.2066 1.07875 55.6964C1.29877 56.3855 1.25048 57.1601 0.928484 57.8037C0.0805741 59.501 0.0805742 63.8125 0.11814 63.9891C0.193271 64.3308 -0.101887 67.0874 0.0591081 68.1525C0.547461 71.4103 2.66724 73.7853 5.43636 75.2377C6.3111 75.8699 7.33611 76.2857 8.49527 76.411C9.02656 76.5476 9.56858 76.6672 10.1213 76.747C11.1785 76.9065 12.0962 76.9691 12.9066 76.9463C16.1265 77.2368 21.9491 77.5444 32.1187 77.5444C42.3312 77.5444 48.1431 77.2311 51.3469 76.9406C52.1787 76.9691 53.1232 76.9065 54.2126 76.7413C54.8352 76.6445 55.4469 76.5135 56.048 76.3483C56.8852 76.2116 57.6472 75.9268 58.3288 75.5111C61.3769 74.0929 63.7543 71.621 64.2749 68.1411C64.4359 67.0874 64.1407 64.3308 64.2158 63.9891Z" fill="url(#paint0_radial_1_51)"/>
<path opacity="0.5" d="M15.716 45.9954C15.8637 45.0649 14.3581 44.02 12.3532 43.6616C10.3482 43.3031 8.60318 43.7669 8.45549 44.6975C8.3078 45.628 9.8134 46.6729 11.8183 47.0314C13.8233 47.3898 15.5683 46.926 15.716 45.9954Z" fill="#B0BEC5"/>
<path d="M45.1383 48.3834H19.1805C17.9945 48.3834 17.0338 49.4029 17.0338 50.6616V76.2914C17.0338 76.9179 17.5168 77.4305 18.1071 77.4305C18.1071 77.4305 21.4183 78 32.0977 78C42.777 78 46.2116 77.4305 46.2116 77.4305C46.8019 77.4305 47.2849 76.9179 47.2849 76.2914V50.6616C47.2849 49.4029 46.3243 48.3834 45.1383 48.3834Z" fill="url(#paint1_linear_1_51)"/>
<path d="M45.1383 48.3834H19.1805C17.9945 48.3834 17.0338 49.4029 17.0338 50.6616V76.2914C17.0338 76.9179 17.5168 77.4305 18.1071 77.4305C18.1071 77.4305 21.4183 78 32.0977 78C42.777 78 46.2116 77.4305 46.2116 77.4305C46.8019 77.4305 47.2849 76.9179 47.2849 76.2914V50.6616C47.2849 49.4029 46.3243 48.3834 45.1383 48.3834Z" fill="url(#paint2_linear_1_51)"/>
<path d="M17.1251 77.2881C15.3702 77.2026 13.9857 77.1001 12.8963 77.0033C12.0859 77.0261 11.1682 76.9634 10.111 76.8039C9.55829 76.7242 9.01628 76.6046 8.48499 76.4679C7.32582 76.3426 6.30082 75.9268 5.42607 75.2946C2.65695 73.8423 0.537177 71.4672 0.0488237 68.2094C-0.112172 67.1444 0.182987 64.3877 0.107855 64.046C0.0702898 63.8694 0.0702897 59.5579 0.9182 57.8607C1.24019 57.2171 1.28849 56.4425 1.06846 55.7533C0.912833 55.2635 0.79477 54.7566 0.714272 54.2269C0.242018 51.0887 1.29922 48.0701 3.31703 45.9628C3.93418 45.3192 4.21324 44.4136 4.07908 43.5251V43.508C3.73562 41.207 4.43864 38.9915 5.81783 37.3625C7.18629 35.7507 8.26496 33.8655 8.81235 31.7695C9.40803 29.4856 10.755 26.7119 13.7871 25.2881C14.5116 24.952 15.0536 24.3483 15.3005 23.5851C15.982 21.4778 18.8424 18.6927 21.1392 18.3338C21.4183 18.2883 21.6974 18.2655 21.971 18.2655C22.717 18.2598 23.9567 17.9522 24.4343 17.3713C26.1408 15.3095 27.8098 14.2217 31.8884 14.0736V14.0622C31.9635 14.0622 32.0386 14.0679 32.1138 14.0679C32.1889 14.0679 32.264 14.0622 32.3392 14.0622V14.0736C36.4231 14.2217 38.1726 15.3095 39.8791 17.3713C40.3567 17.9522 41.5964 18.2598 42.3424 18.2655C42.616 18.2655 42.8951 18.2883 43.1742 18.3338C45.471 18.687 48.326 21.4778 49.0129 23.5851C49.2652 24.3483 49.8072 24.952 50.5263 25.2881C53.553 26.7176 54.9054 29.4856 55.5011 31.7695C56.0484 33.8598 57.1271 35.745 58.4956 37.3625C59.8801 38.9971 60.5778 41.207 60.2343 43.508V43.5251C60.1002 44.4136 60.3792 45.3192 60.9964 45.9628C63.0142 48.0758 64.066 51.0887 63.5991 54.2269C63.524 54.7509 63.4006 55.2635 63.2449 55.7533C63.0249 56.4425 63.0732 57.2171 63.3952 57.8607C64.2431 59.5579 64.2431 63.8694 64.2055 64.046C64.1304 64.3877 64.4256 67.1444 64.2646 68.198C63.744 71.678 61.3667 74.1498 58.3185 75.568C57.6369 75.9838 56.8749 76.2686 56.0377 76.4052C55.4367 76.5704 54.8249 76.7014 54.2024 76.7982C53.113 76.9634 52.1684 77.0261 51.3366 76.9976C50.2472 77.1001 48.8466 77.1969 47.0756 77.2881V76.5647C47.2098 76.3768 47.2849 76.1433 47.2849 75.8927V50.2629C47.2849 49.0042 46.3243 47.9847 45.1383 47.9847H19.1805C17.9945 47.9847 17.0339 49.0042 17.0339 50.2629V75.8927C17.0339 76.0521 17.0661 76.2059 17.1251 76.3483V77.2881Z" fill="url(#paint3_radial_1_51)"/>
<path opacity="0.5" d="M26.5164 52.1423C26.5164 52.5524 26.2052 52.8828 25.8188 52.8828C25.4324 52.8828 25.1212 52.5524 25.1212 52.1423C25.1212 51.7323 25.4324 50.223 25.8188 50.223C26.2052 50.223 26.5164 51.738 26.5164 52.1423Z" fill="#47524B"/>
<path opacity="0.8" d="M21.2197 55.1325C21.2197 55.5426 20.9084 55.8729 20.522 55.8729C20.1357 55.8729 19.8244 55.5426 19.8244 55.1325C19.8244 54.7224 20.1357 53.2131 20.522 53.2131C20.9084 53.2131 21.2197 54.7281 21.2197 55.1325Z" fill="#47524B"/>
<path opacity="0.8" d="M32.8382 55.1325C32.8382 55.5426 32.5269 55.8729 32.1405 55.8729C31.7542 55.8729 31.4429 55.5426 31.4429 55.1325C31.4429 54.7224 31.7542 53.2131 32.1405 53.2131C32.5269 53.2131 32.8382 54.7281 32.8382 55.1325Z" fill="#47524B"/>
<path opacity="0.8" d="M26.5164 60.885C26.5164 61.2951 26.2052 61.6254 25.8188 61.6254C25.4324 61.6254 25.1212 61.2951 25.1212 60.885C25.1212 60.4749 25.4324 58.9656 25.8188 58.9656C26.2052 58.9656 26.5164 60.4749 26.5164 60.885Z" fill="#47524B"/>
<path opacity="0.8" d="M44.4567 55.1325C44.4567 55.5426 44.1454 55.8729 43.7591 55.8729C43.3727 55.8729 43.0614 55.5426 43.0614 55.1325C43.0614 54.7224 43.3727 53.2131 43.7591 53.2131C44.1454 53.2131 44.4567 54.7281 44.4567 55.1325Z" fill="#47524B"/>
<path opacity="0.2" d="M21.2197 67.1102C21.2197 67.5203 20.9084 67.8506 20.522 67.8506C20.1357 67.8506 19.8244 67.5203 19.8244 67.1102C19.8244 66.7001 20.1357 65.1908 20.522 65.1908C20.9084 65.1908 21.2197 66.7001 21.2197 67.1102Z" fill="#47524B"/>
<path opacity="0.2" d="M32.8382 67.1102C32.8382 67.5203 32.5269 67.8506 32.1405 67.8506C31.7542 67.8506 31.4429 67.5203 31.4429 67.1102C31.4429 66.7001 31.7542 65.1908 32.1405 65.1908C32.5269 65.1908 32.8382 66.7001 32.8382 67.1102Z" fill="#47524B"/>
<path opacity="0.2" d="M26.5164 71.9058C26.5164 72.3159 26.2052 72.6462 25.8188 72.6462C25.4324 72.6462 25.1212 72.3159 25.1212 71.9058C25.1212 71.4957 25.4324 69.9864 25.8188 69.9864C26.2052 69.9864 26.5164 71.4957 26.5164 71.9058Z" fill="#47524B"/>
<path opacity="0.5" d="M39.321 52.1423C39.321 52.5524 39.0097 52.8828 38.6233 52.8828C38.2369 52.8828 37.9257 52.5524 37.9257 52.1423C37.9257 51.7323 38.2369 50.223 38.6233 50.223C39.0097 50.223 39.321 51.738 39.321 52.1423Z" fill="#47524B"/>
<path opacity="0.8" d="M39.321 60.885C39.321 61.2951 39.0097 61.6254 38.6233 61.6254C38.2369 61.6254 37.9257 61.2951 37.9257 60.885C37.9257 60.4749 38.2369 58.9656 38.6233 58.9656C39.0097 58.9656 39.321 60.4749 39.321 60.885Z" fill="#47524B"/>
<path opacity="0.2" d="M39.321 71.9058C39.321 72.3159 39.0097 72.6462 38.6233 72.6462C38.2369 72.6462 37.9257 72.3159 37.9257 71.9058C37.9257 71.4957 38.2369 69.9864 38.6233 69.9864C39.0097 69.9864 39.321 71.4957 39.321 71.9058Z" fill="#47524B"/>
<path opacity="0.2" d="M44.4567 67.1102C44.4567 67.5203 44.1454 67.8506 43.7591 67.8506C43.3727 67.8506 43.0614 67.5203 43.0614 67.1102C43.0614 66.7001 43.3727 65.1908 43.7591 65.1908C44.1454 65.1908 44.4567 66.7001 44.4567 67.1102Z" fill="#47524B"/>
<path opacity="0.3" d="M20.6651 36.3917C21.3527 35.7934 20.8651 33.9557 19.5761 32.287C18.287 30.6183 16.6847 29.7506 15.9971 30.3489C15.3095 30.9472 15.7971 32.7849 17.0861 34.4536C18.3752 36.1222 19.9776 36.9899 20.6651 36.3917Z" fill="#B0BEC5"/>
<path opacity="0.5" d="M50.9326 33.8698C51.1249 32.9484 49.6714 31.8233 47.6862 31.3567C45.701 30.8902 43.9358 31.259 43.7435 32.1804C43.5513 33.1017 45.0048 34.2269 46.99 34.6934C48.9752 35.1599 50.7404 34.7912 50.9326 33.8698Z" fill="#B0BEC5"/>
<path opacity="0.3" d="M35.4195 26.2165C37.1825 25.1417 38.2527 23.6071 37.8098 22.7888C37.3669 21.9706 35.5787 22.1786 33.8157 23.2534C32.0527 24.3282 30.9826 25.8628 31.4255 26.6811C31.8683 27.4993 33.6566 27.2914 35.4195 26.2165Z" fill="#B0BEC5"/>
<path d="M52.8303 70.9031C54.7065 70.0714 55.9497 68.6913 55.607 67.8205C55.2643 66.9497 53.4655 66.9179 51.5893 67.7496C49.7131 68.5812 48.4699 69.9613 48.8126 70.8321C49.1552 71.7029 50.954 71.7347 52.8303 70.9031Z" fill="#B0BEC5"/>
<path d="M59.2136 61.2972C59.6294 60.4631 58.5097 58.9688 56.7125 57.9595C54.9154 56.9503 53.1214 56.8084 52.7055 57.6425C52.2897 58.4766 53.4094 59.9709 55.2066 60.9801C57.0037 61.9893 58.7977 62.1313 59.2136 61.2972Z" fill="#B0BEC5"/>
<path d="M15.1611 70.7668C15.577 69.9327 14.4572 68.4384 12.6601 67.4292C10.8629 66.42 9.06892 66.278 8.65306 67.1121C8.2372 67.9462 9.35696 69.4405 11.1541 70.4497C12.9512 71.459 14.7452 71.6009 15.1611 70.7668Z" fill="#B0BEC5"/>
<path d="M9.04391 60.1897C11.0031 59.6129 12.3987 58.4082 12.161 57.4988C11.9233 56.5895 10.1424 56.32 8.18323 56.8968C6.22404 57.4735 4.82847 58.6783 5.06614 59.5876C5.30382 60.4969 7.08472 60.7665 9.04391 60.1897Z" fill="#B0BEC5"/>
<path opacity="0.5" d="M32.7504 43.5219C34.3529 42.194 35.2085 40.5145 34.6613 39.7707C34.1141 39.0269 32.3714 39.5004 30.7688 40.8284C29.1663 42.1563 28.3107 43.8358 28.8579 44.5796C29.4051 45.3234 31.1478 44.8498 32.7504 43.5219Z" fill="#B0BEC5"/>
<path opacity="0.5" d="M48.0923 44.482C48.7429 43.8387 48.1467 42.0373 46.7607 40.4584C45.3746 38.8795 43.7236 38.1211 43.073 38.7644C42.4224 39.4077 43.0186 41.2091 44.4047 42.788C45.7907 44.3669 47.4417 45.1253 48.0923 44.482Z" fill="#B0BEC5"/>
<path d="M52.9138 52.4472C54.4405 51.0221 55.2022 49.2925 54.615 48.5839C54.0278 47.8753 52.3141 48.4561 50.7874 49.8811C49.2606 51.3061 48.499 53.0358 49.0862 53.7444C49.6734 54.453 51.3871 53.8722 52.9138 52.4472Z" fill="#B0BEC5"/>
<defs>
<radialGradient id="paint0_radial_1_51" cx="0" cy="0" r="1" gradientUnits="userSpaceOnUse" gradientTransform="translate(31.7763 23.9451) scale(39.3559 44.8135)">
<stop offset="0.4585" stop-color="#F5F5F5"/>
<stop offset="1" stop-color="#D0D8DC"/>
</radialGradient>
<linearGradient id="paint1_linear_1_51" x1="32.1594" y1="78" x2="32.1594" y2="48.3834" gradientUnits="userSpaceOnUse">
<stop stop-color="#212E26"/>
<stop offset="0.5046" stop-color="#334038"/>
<stop offset="0.9089" stop-color="#48534C"/>
</linearGradient>
<linearGradient id="paint2_linear_1_51" x1="32.1594" y1="48.3834" x2="32.1594" y2="77.1522" gradientUnits="userSpaceOnUse">
<stop offset="0.6085" stop-color="#4B564F" stop-opacity="0"/>
<stop offset="1" stop-color="#4B564F"/>
</linearGradient>
<radialGradient id="paint3_radial_1_51" cx="0" cy="0" r="1" gradientUnits="userSpaceOnUse" gradientTransform="translate(32.0037 61.8832) rotate(89.6668) scale(46.7715 31.9772)">
<stop offset="0.7437" stop-color="#BFBEBE" stop-opacity="0"/>
<stop offset="1" stop-color="#BFBEBE" stop-opacity="0.3"/>
</radialGradient>
</defs>
</svg>
