<svg width="436" height="396" viewBox="0 0 436 396" fill="none" xmlns="http://www.w3.org/2000/svg">
<g clip-path="url(#clip0_7_13692)">
<path d="M18.4439 279.249C18.4439 279.249 9.22953 294.988 10.052 308.426C10.8744 321.863 14.5417 325.192 23.2861 329.214C32.0306 333.237 32.1481 288.787 32.1481 288.787L18.4439 279.249Z" fill="#FFD2B1"/>
<path d="M100.786 277.185L88.6598 290.28C88.6598 290.28 90.6319 330.136 92.6376 330.479C94.6433 330.822 104.806 326.571 107.995 320.256C111.184 313.941 109.791 303.367 109.061 299.696C107.642 292.573 100.786 277.185 100.786 277.185Z" fill="#FFD2B1"/>
<path d="M59.9926 253.41C51.2481 253.304 43.1415 256.054 43.1415 256.054C43.1415 256.054 28.489 245.716 18.5613 253.981C6.16635 264.319 17.1431 279.478 18.0914 280.514C19.0397 281.55 23.286 291.308 23.286 291.308C23.286 291.308 20.6845 301.189 20.567 308.075C20.3992 317.735 22.5727 328.904 22.5727 328.904C22.5727 328.904 26.7099 330.707 30.4863 331.964C33.5242 332.976 35.446 333.229 36.5118 334.028C37.5776 334.836 44.4254 344.137 52.465 345.402C59.5562 346.519 70.8938 345.744 77.0367 339.429C81.7446 334.591 82.7097 333.343 83.5321 332.886C84.3629 332.429 94.7186 330.169 94.7186 330.169C94.7186 330.169 98.302 313.247 98.302 305.896C98.302 298.545 97.3537 292.687 97.3537 292.687L101.373 282.578C101.373 282.578 114.373 266.383 102.439 256.502C91.4542 247.405 79.0508 257.188 79.0508 257.188C79.0508 257.188 69.442 253.524 59.9926 253.41Z" fill="#FF8E01"/>
<path d="M22.1028 259.611C29.194 253.622 35.2194 259.497 35.2194 260.068C35.2194 260.345 31.0906 262.703 27.7758 265.698C24.2511 268.879 21.5237 272.706 21.1629 272.706C20.4495 272.706 15.8423 264.898 22.1028 259.611Z" fill="#FF6011"/>
<path d="M97.9581 261.218C93.5943 257.31 86.4947 260.647 86.2597 261.218C86.1422 261.504 90.0361 264.115 92.9901 266.962C96.0531 269.916 98.6546 273.22 98.898 273.277C99.368 273.391 103.858 266.505 97.9581 261.218Z" fill="#FF6011"/>
<path d="M39.4743 317.498C39.4743 317.498 39.2309 340.825 58.6164 340.237C81.4174 339.552 78.346 318.526 78.346 318.526L39.4743 317.498Z" fill="#FFD2B1"/>
<path d="M59.3213 312.448C59.3213 312.448 43.729 320.37 43.8465 319.913C43.9052 319.693 47.732 322.565 51.7182 325.625C56.0736 328.97 67.4615 326.555 67.4615 326.555L74.922 320.019L59.3213 312.448Z" fill="#FEA7A5"/>
<path d="M60.2696 298.545C60.2696 298.545 41.3708 289.701 34.9845 298.317C28.5982 306.933 34.9845 315.777 39.4742 317.498C43.9639 319.22 51.0552 325.192 51.0552 325.192C51.0552 325.192 52.2384 322.777 52.1209 321.635C52.0034 320.484 51.1726 316.927 51.1726 316.927L59.3213 312.448L65.9342 318.306C65.9342 318.306 64.9859 324.164 65.4642 324.849C65.9425 325.535 69.6015 324.042 69.6015 324.042L71.4897 318.298C71.4897 318.298 76.0213 318.029 78.9753 317.686C81.9293 317.343 88.1478 313.362 87.4428 306.353C86.7379 299.345 80.2341 295.331 75.2744 295.445C70.3064 295.559 60.2696 298.545 60.2696 298.545Z" fill="white"/>
<path d="M82.3573 316.927C81.8706 315.752 73.8478 315.434 68.6532 312.448C63.1984 309.315 63.576 305.668 63.576 305.668C63.576 305.668 67.5035 303.718 71.0197 301.189C74.536 298.659 77.5571 295.608 76.5752 293.952C74.2507 290.044 66.8909 295.216 59.9171 294.874C53.1784 294.539 44.2996 290.566 42.7891 292.695C41.1946 294.939 44.3416 298.423 48.1096 301.083C51.8776 303.742 56.2582 305.562 56.2582 305.562C56.2582 305.562 56.2582 310.155 50.2328 312.685C43.5024 315.508 37.1581 315.328 36.7636 315.671C35.5804 316.707 37.2084 317.841 38.5343 318.314C39.8351 318.771 41.2534 318.771 41.2534 318.771C41.2534 318.771 42.3191 327.73 59.3297 328.072C75.8703 328.407 76.4578 320.036 76.4578 320.036C76.4578 320.036 78.111 319.693 79.6803 319.13C81.2496 318.567 82.7098 317.784 82.3573 316.927ZM59.0863 324.278C49.2845 324.164 45.9696 319.799 45.9696 319.799C45.9696 319.799 49.6286 319.799 52.2301 319.228C55.4442 318.518 59.2038 315.434 59.2038 315.434C59.2038 315.434 62.2669 318.567 64.8768 319.456C67.2434 320.264 71.6072 320.721 71.6072 320.721C71.6072 320.721 68.8882 324.393 59.0863 324.278Z" fill="#2F2F2F"/>
<path d="M46.3222 280.171C46.3222 282.994 43.8213 285.336 40.8841 285.801C37.9889 286.258 35.3286 283.794 35.4461 280.057C35.5384 277.234 38.0309 275.464 41.0016 275.464C43.9724 275.464 46.3222 277.128 46.3222 280.171Z" fill="#2F2F2F"/>
<path d="M79.0509 285.573C76.2984 284.667 74.6451 282.374 75.3417 279.127C76.097 275.578 78.6481 274.158 82.2399 275.464C84.9589 276.451 86.2345 279.796 85.3701 282.554C84.6064 284.993 82.0133 286.544 79.0509 285.573Z" fill="#2F2F2F"/>
<path d="M91.7312 279.788C90.5815 281.053 87.3674 280.065 86.9226 281.779C86.2932 284.226 92.99 286.372 95.4321 283.231C97.8742 280.09 95.1216 273.09 92.8306 274.574C91.4207 275.496 92.9145 278.483 91.7312 279.788Z" fill="#2F2F2F"/>
<path d="M97.9582 277.487C97.0686 277.838 98.1176 280.628 98.512 282.774C98.9065 284.92 98.512 288.518 97.2532 289.97C95.9944 291.423 94.8112 291.039 94.8112 291.039C94.8112 291.039 91.8236 285.801 90.2459 287.898C88.7521 289.889 91.9747 290.199 91.5886 294.099C91.1942 298.007 88.4165 299.949 91.2697 300.528C92.7635 300.838 94.2657 298.154 94.2657 298.154C94.2657 298.154 99.1498 298.227 101.592 292.638C103.43 288.436 102.297 285.287 101.432 282.072C100.568 278.858 98.3442 277.34 97.9582 277.487Z" fill="#2F2F2F"/>
<path d="M98.428 302.682C95.432 305.896 91.0262 309.494 90.7073 310.416C90.3884 311.338 90.3884 313.476 94.7271 312.791C99.0658 312.105 103.153 308.197 104.453 305.782C106.157 302.625 106.778 297.321 105.83 295.404C104.881 293.487 103.153 294.409 102.599 296.016C102.053 297.631 99.5693 301.458 98.428 302.682Z" fill="#2F2F2F"/>
<path d="M30.0584 277.871C29.9829 275.953 31.9466 274.273 30.7634 273.277C29.1941 271.955 24.9309 275.578 26.2737 279.943C27.6164 284.308 32.9201 283.769 33.7929 283.084C35.2531 281.934 34.1789 280.914 33.3985 280.555C32.19 280 30.134 279.739 30.0584 277.871Z" fill="#2F2F2F"/>
<path d="M26.1227 289.13C26.1227 289.13 27.9353 286.217 29.4291 287.449C30.9229 288.673 27.6164 290.745 28.0109 294.262C28.4053 297.778 30.4529 300.389 29.4291 301.385C28.0109 302.763 25.8038 299.851 25.0988 298.782C24.3939 297.713 23.9156 296.253 23.9156 296.253C23.9156 296.253 19.0314 292.344 18.167 287.523C17.4957 283.794 18.5615 279.486 20.9196 277.414C22.5309 276.002 23.3449 276.019 23.9911 276.647C24.9394 277.569 22.4134 281.24 23.2862 284.838C24.1505 288.445 26.1227 289.13 26.1227 289.13Z" fill="#2F2F2F"/>
<path d="M22.7407 303.065C20.5756 300.438 16.7152 294.278 15.255 294.792C13.5263 295.404 13.8368 303.383 17.9321 307.961C23.1267 313.778 29.8235 313.704 30.6124 311.33C31.1914 309.584 26.5171 307.659 22.7407 303.065Z" fill="#2F2F2F"/>
<path d="M55.0665 253.582C55.0665 253.582 55.654 257.718 50.988 259.04C46.3221 260.362 43.4856 258.681 43.6618 262.369C43.7541 264.204 45.7682 265.118 47.7991 265.241C49.8299 265.363 51.844 264.629 52.935 264.204C55.3015 263.283 59.0779 258.746 59.7241 258.632C60.3703 258.518 62.3843 261.732 66.4545 263.454C68.3175 264.237 70.684 264.898 72.4967 264.661C74.4017 264.417 75.9962 263.168 75.8451 260.753C75.7444 258.926 73.0254 259.839 68.5357 258.461C64.046 257.082 64.6754 253.712 64.6754 253.712C64.6754 253.712 61.327 253.402 59.6737 253.402C58.0205 253.41 55.0665 253.582 55.0665 253.582Z" fill="#2F2F2F"/>
<path d="M59.9676 262.54C59.0445 262.524 56.8374 265.412 54.7729 266.391C52.7085 267.37 48.2775 267.599 47.7405 269.434C47.2118 271.27 48.865 273.457 53.3547 272.877C58.0039 272.282 59.5564 268.741 60.1438 268.684C60.7313 268.627 62.6278 272.82 67.705 273.22C72.0772 273.563 73.2773 269.948 71.901 268.741C70.0128 267.076 66.6476 266.677 64.986 265.926C63.0223 265.037 60.7984 262.556 59.9676 262.54Z" fill="#2F2F2F"/>
<path d="M418.803 330.536C418.856 330.316 418.856 324.942 417.655 322.827C417.199 322.024 417.13 321.059 417.442 320.2C417.663 319.589 417.838 318.95 417.944 318.297C418.605 314.386 417.115 310.63 414.257 307.997C413.382 307.194 412.987 306.066 413.177 304.958V304.937C413.664 302.069 412.675 299.314 410.714 297.277C408.775 295.261 407.247 292.911 406.471 290.306C405.627 287.459 403.711 284.009 399.423 282.227C398.404 281.808 397.637 281.055 397.279 280.104C396.306 277.478 392.261 273.999 389.007 273.559C388.612 273.502 388.217 273.474 387.829 273.474C386.772 273.467 385.016 273.083 384.339 272.359C381.921 269.789 379.443 268.433 373.657 268.249V268.235C373.551 268.235 373.444 268.242 373.338 268.242C373.231 268.242 373.125 268.235 373.018 268.235V268.249C367.24 268.433 364.876 269.789 362.458 272.359C361.781 273.083 360.025 273.467 358.968 273.474C358.58 273.474 358.185 273.502 357.79 273.559C354.536 274.006 350.483 277.478 349.518 280.104C349.168 281.055 348.4 281.808 347.374 282.227C343.078 284.002 341.17 287.459 340.326 290.306C339.55 292.918 338.022 295.268 336.083 297.277C334.129 299.307 333.133 302.069 333.62 304.937V304.958C333.81 306.066 333.415 307.194 332.54 307.997C329.682 310.623 328.184 314.386 328.853 318.297C328.967 318.958 329.134 319.589 329.355 320.2C329.667 321.059 329.598 322.024 329.142 322.827C327.941 324.942 327.941 330.316 327.994 330.536C328.1 330.962 327.682 334.398 327.91 335.726C328.602 339.786 331.605 342.747 335.528 344.557C336.768 345.345 338.22 345.863 339.862 346.019C340.615 346.19 341.383 346.339 342.166 346.438C343.663 346.637 344.964 346.715 346.112 346.687C350.673 347.049 358.923 347.432 373.33 347.432C387.798 347.432 396.032 347.042 400.571 346.68C401.75 346.715 403.088 346.637 404.631 346.431C405.513 346.31 406.38 346.147 407.231 345.941C408.418 345.771 409.497 345.416 410.463 344.898C414.781 343.13 418.149 340.049 418.887 335.711C419.115 334.398 418.697 330.962 418.803 330.536Z" fill="url(#paint0_radial_7_13692)"/>
<path opacity="0.5" d="M350.092 308.108C350.301 306.948 348.168 305.646 345.327 305.199C342.487 304.752 340.015 305.331 339.805 306.49C339.596 307.65 341.729 308.953 344.57 309.399C347.41 309.846 349.882 309.268 350.092 308.108Z" fill="#B0BEC5"/>
<path d="M391.775 311.085H355C353.32 311.085 351.959 312.355 351.959 313.924V345.87C351.959 346.651 352.643 347.29 353.479 347.29C353.479 347.29 358.17 348 373.3 348C388.43 348 393.296 347.29 393.296 347.29C394.132 347.29 394.816 346.651 394.816 345.87V313.924C394.816 312.355 393.456 311.085 391.775 311.085Z" fill="url(#paint1_linear_7_13692)"/>
<path d="M391.775 311.085H355C353.32 311.085 351.959 312.355 351.959 313.924V345.87C351.959 346.651 352.643 347.29 353.479 347.29C353.479 347.29 358.17 348 373.3 348C388.43 348 393.296 347.29 393.296 347.29C394.132 347.29 394.816 346.651 394.816 345.87V313.924C394.816 312.355 393.456 311.085 391.775 311.085Z" fill="url(#paint2_linear_7_13692)"/>
<path d="M352.088 347.113C349.602 347.006 347.64 346.878 346.097 346.758C344.949 346.786 343.649 346.708 342.151 346.509C341.368 346.41 340.6 346.261 339.847 346.09C338.205 345.934 336.753 345.416 335.514 344.628C331.591 342.818 328.587 339.857 327.896 335.797C327.667 334.469 328.086 331.033 327.979 330.607C327.926 330.387 327.926 325.013 329.127 322.898C329.583 322.095 329.652 321.13 329.34 320.271C329.12 319.66 328.952 319.029 328.838 318.368C328.169 314.457 329.667 310.694 332.526 308.068C333.4 307.265 333.795 306.137 333.605 305.029V305.008C333.119 302.14 334.115 299.378 336.069 297.348C338.007 295.339 339.536 292.989 340.311 290.377C341.155 287.53 343.063 284.073 347.359 282.298C348.385 281.879 349.153 281.126 349.503 280.175C350.469 277.549 354.521 274.077 357.775 273.63C358.17 273.573 358.566 273.545 358.954 273.545C360.01 273.538 361.767 273.154 362.443 272.43C364.861 269.86 367.225 268.504 373.004 268.32V268.306C373.11 268.306 373.217 268.313 373.323 268.313C373.429 268.313 373.536 268.306 373.642 268.306V268.32C379.428 268.504 381.907 269.86 384.324 272.43C385.001 273.154 386.757 273.538 387.814 273.545C388.202 273.545 388.597 273.573 388.993 273.63C392.247 274.07 396.291 277.549 397.265 280.175C397.622 281.126 398.39 281.879 399.409 282.298C403.697 284.08 405.613 287.53 406.457 290.377C407.232 292.982 408.76 295.332 410.699 297.348C412.661 299.385 413.649 302.14 413.162 305.008V305.029C412.972 306.137 413.368 307.265 414.242 308.068C417.101 310.701 418.591 314.457 417.929 318.368C417.823 319.021 417.648 319.66 417.428 320.271C417.116 321.13 417.184 322.095 417.64 322.898C418.842 325.013 418.842 330.387 418.788 330.607C418.682 331.033 419.1 334.469 418.872 335.782C418.135 340.12 414.767 343.201 410.448 344.969C409.482 345.487 408.403 345.842 407.217 346.012C406.365 346.218 405.499 346.381 404.617 346.502C403.073 346.708 401.735 346.786 400.557 346.751C399.013 346.878 397.029 346.999 394.52 347.113V346.211C394.71 345.977 394.816 345.686 394.816 345.373V313.427C394.816 311.858 393.456 310.588 391.775 310.588H355C353.32 310.588 351.959 311.858 351.959 313.427V345.373C351.959 345.572 352.004 345.764 352.088 345.941V347.113Z" fill="url(#paint3_radial_7_13692)"/>
<path opacity="0.5" d="M365.393 315.77C365.393 316.281 364.952 316.693 364.405 316.693C363.857 316.693 363.417 316.281 363.417 315.77C363.417 315.259 363.857 313.378 364.405 313.378C364.952 313.378 365.393 315.266 365.393 315.77Z" fill="#47524B"/>
<path opacity="0.8" d="M357.889 319.497C357.889 320.008 357.448 320.42 356.901 320.42C356.353 320.42 355.912 320.008 355.912 319.497C355.912 318.986 356.353 317.105 356.901 317.105C357.448 317.105 357.889 318.993 357.889 319.497Z" fill="#47524B"/>
<path opacity="0.8" d="M374.35 319.497C374.35 320.008 373.909 320.42 373.361 320.42C372.814 320.42 372.373 320.008 372.373 319.497C372.373 318.986 372.814 317.105 373.361 317.105C373.909 317.105 374.35 318.993 374.35 319.497Z" fill="#47524B"/>
<path opacity="0.8" d="M365.393 326.667C365.393 327.178 364.952 327.59 364.405 327.59C363.857 327.59 363.417 327.178 363.417 326.667C363.417 326.156 363.857 324.275 364.405 324.275C364.952 324.275 365.393 326.156 365.393 326.667Z" fill="#47524B"/>
<path opacity="0.8" d="M390.81 319.497C390.81 320.008 390.369 320.42 389.821 320.42C389.274 320.42 388.833 320.008 388.833 319.497C388.833 318.986 389.274 317.105 389.821 317.105C390.369 317.105 390.81 318.993 390.81 319.497Z" fill="#47524B"/>
<path opacity="0.2" d="M357.889 334.426C357.889 334.938 357.448 335.349 356.901 335.349C356.353 335.349 355.912 334.938 355.912 334.426C355.912 333.915 356.353 332.034 356.901 332.034C357.448 332.034 357.889 333.915 357.889 334.426Z" fill="#47524B"/>
<path opacity="0.2" d="M374.35 334.426C374.35 334.938 373.909 335.349 373.361 335.349C372.814 335.349 372.373 334.938 372.373 334.426C372.373 333.915 372.814 332.034 373.361 332.034C373.909 332.034 374.35 333.915 374.35 334.426Z" fill="#47524B"/>
<path opacity="0.2" d="M365.393 340.404C365.393 340.915 364.952 341.327 364.405 341.327C363.857 341.327 363.417 340.915 363.417 340.404C363.417 339.893 363.857 338.012 364.405 338.012C364.952 338.012 365.393 339.893 365.393 340.404Z" fill="#47524B"/>
<path opacity="0.5" d="M383.534 315.77C383.534 316.281 383.093 316.693 382.545 316.693C381.998 316.693 381.557 316.281 381.557 315.77C381.557 315.259 381.998 313.378 382.545 313.378C383.093 313.378 383.534 315.266 383.534 315.77Z" fill="#47524B"/>
<path opacity="0.8" d="M383.534 326.667C383.534 327.178 383.093 327.59 382.545 327.59C381.998 327.59 381.557 327.178 381.557 326.667C381.557 326.156 381.998 324.275 382.545 324.275C383.093 324.275 383.534 326.156 383.534 326.667Z" fill="#47524B"/>
<path opacity="0.2" d="M383.534 340.404C383.534 340.915 383.093 341.327 382.545 341.327C381.998 341.327 381.557 340.915 381.557 340.404C381.557 339.893 381.998 338.012 382.545 338.012C383.093 338.012 383.534 339.893 383.534 340.404Z" fill="#47524B"/>
<path opacity="0.2" d="M390.81 334.426C390.81 334.938 390.369 335.349 389.821 335.349C389.274 335.349 388.833 334.938 388.833 334.426C388.833 333.915 389.274 332.034 389.821 332.034C390.369 332.034 390.81 333.915 390.81 334.426Z" fill="#47524B"/>
<path opacity="0.3" d="M357.103 296.138C358.077 295.392 357.387 293.101 355.56 291.022C353.734 288.942 351.464 287.86 350.49 288.606C349.516 289.352 350.207 291.642 352.033 293.722C353.859 295.802 356.129 296.883 357.103 296.138Z" fill="#B0BEC5"/>
<path opacity="0.5" d="M399.984 292.994C400.257 291.846 398.198 290.444 395.385 289.862C392.573 289.281 390.072 289.74 389.799 290.889C389.527 292.037 391.586 293.44 394.399 294.021C397.211 294.602 399.712 294.143 399.984 292.994Z" fill="#B0BEC5"/>
<path opacity="0.3" d="M378.006 283.455C380.504 282.115 382.02 280.203 381.393 279.183C380.765 278.163 378.232 278.422 375.734 279.762C373.237 281.101 371.72 283.014 372.348 284.034C372.975 285.054 375.509 284.795 378.006 283.455Z" fill="#B0BEC5"/>
<path d="M402.673 339.154C405.331 338.118 407.092 336.397 406.607 335.312C406.121 334.226 403.573 334.187 400.915 335.223C398.257 336.26 396.495 337.98 396.981 339.066C397.466 340.151 400.015 340.191 402.673 339.154Z" fill="#B0BEC5"/>
<path d="M411.716 327.181C412.305 326.141 410.719 324.279 408.173 323.021C405.627 321.763 403.085 321.586 402.496 322.626C401.907 323.665 403.493 325.528 406.039 326.786C408.585 328.044 411.127 328.221 411.716 327.181Z" fill="#B0BEC5"/>
<path d="M349.306 338.984C349.895 337.945 348.308 336.082 345.762 334.824C343.216 333.566 340.675 333.389 340.086 334.429C339.496 335.469 341.083 337.331 343.629 338.589C346.175 339.847 348.717 340.024 349.306 338.984Z" fill="#B0BEC5"/>
<path d="M340.639 325.801C343.415 325.082 345.392 323.58 345.055 322.447C344.719 321.313 342.196 320.977 339.42 321.696C336.644 322.415 334.667 323.917 335.004 325.05C335.341 326.183 337.864 326.519 340.639 325.801Z" fill="#B0BEC5"/>
<path opacity="0.5" d="M374.225 305.025C376.495 303.37 377.708 301.277 376.932 300.35C376.157 299.422 373.688 300.013 371.418 301.668C369.147 303.323 367.935 305.416 368.71 306.344C369.486 307.271 371.955 306.68 374.225 305.025Z" fill="#B0BEC5"/>
<path opacity="0.5" d="M395.96 306.222C396.882 305.42 396.037 303.175 394.074 301.207C392.11 299.239 389.771 298.293 388.849 299.095C387.927 299.897 388.772 302.142 390.736 304.11C392.699 306.078 395.038 307.024 395.96 306.222Z" fill="#B0BEC5"/>
<path d="M402.791 316.15C404.954 314.374 406.033 312.218 405.201 311.335C404.369 310.451 401.941 311.175 399.778 312.952C397.615 314.728 396.536 316.884 397.368 317.767C398.2 318.65 400.628 317.926 402.791 316.15Z" fill="#B0BEC5"/>
<path d="M179.647 73.5331C179.332 77.2146 172.334 82.4016 172.648 95.5324C172.963 108.663 182.221 131.579 214.859 132.16C247.498 132.733 259.44 109.817 259.542 94.0353C259.638 79.4072 253.268 76.5029 252.544 72.7313C251.929 69.5079 257.487 54.7653 245.026 49.4639C230.319 43.2052 224.842 59.0196 224.432 59.3632C224.023 59.7068 220.008 59.9359 216.505 59.9359C213.002 59.9359 209.192 59.9359 208.782 59.4777C208.373 59.0196 199.414 43.1234 186.441 49.7993C174.272 56.0743 179.852 71.1114 179.647 73.5331Z" fill="#B7D019"/>
<path d="M244.675 68.6161C244.675 72.944 242.481 76.601 238.81 76.4456C235.643 76.3147 233.076 72.9358 233.076 68.6161C233.076 64.2965 235.643 60.8521 238.81 60.7867C242.547 60.7049 244.675 64.2883 244.675 68.6161Z" fill="#2F2F2F"/>
<path d="M199.926 68.0026C200.131 73.5331 197.732 76.2984 194.061 76.2166C190.975 76.1511 188.532 73.6067 188.466 68.3053C188.408 63.9365 189.907 60.5495 194.061 60.394C197.147 60.2877 199.765 63.642 199.926 68.0026Z" fill="#2F2F2F"/>
<path d="M208.263 85.9113C207.671 87.3757 206.025 87.8339 204.921 87.1221C203.824 86.4103 203.524 84.4796 204.241 83.0888C204.957 81.6979 206.179 81.4852 207.071 81.8779C208.263 82.4015 209.141 83.7433 208.263 85.9113Z" fill="#2F2F2F"/>
<path d="M228.038 83.4978C228.601 85.0195 227.921 86.803 226.619 87.2366C225.317 87.6702 223.92 86.7376 223.503 85.1586C223.087 83.5796 223.606 82.2052 224.871 81.6407C225.697 81.2807 227.204 81.248 228.038 83.4978Z" fill="#2F2F2F"/>
<path d="M189.359 98.0277L189.636 100.253C189.636 100.253 197.322 109.236 215.854 109.547C234.868 109.866 243.103 99.4922 243.103 99.4922L234.59 94.8861C234.59 94.8861 226.494 98.7231 216.059 98.494C205.623 98.265 195.333 94.8861 195.333 94.8861L189.359 98.0277Z" fill="#FF6011"/>
<path d="M245.779 92.7999C243.38 88.8811 240.492 92.4481 235.965 94.338C233.456 95.3852 231.796 95.9906 231.796 95.9906C231.796 95.9906 235.519 96.8005 237.164 97.7986C238.81 98.7968 241.676 100.981 241.676 100.981C241.676 100.981 247.797 96.1051 245.779 92.7999Z" fill="#865B51"/>
<path d="M187.435 92.3418C184.554 94.4934 189.644 100.261 189.644 100.261C189.644 100.261 191.216 98.6413 193.344 97.6432C195.472 96.6451 199.034 95.9252 199.034 95.9252C199.034 95.9252 194.917 94.8861 192.525 93.3399C191.289 92.5545 189.081 91.1146 187.435 92.3418Z" fill="#865B51"/>
<path d="M150.267 127.749C150.264 126.875 149.628 126.17 148.848 126.173L136.124 126.22C135.343 126.223 134.713 126.933 134.716 127.807C134.719 128.68 135.355 129.386 136.136 129.383L147.446 129.341L147.492 141.993C147.496 142.867 148.131 143.573 148.912 143.57C149.693 143.567 150.323 142.856 150.32 141.983L150.267 127.749ZM62.3971 227.443L149.857 128.869L147.85 126.64L60.3895 225.214L62.3971 227.443Z" fill="#FF6011"/>
<path d="M346.887 249.712C347.657 249.863 348.417 249.294 348.585 248.441L351.33 234.528C351.498 233.675 351.011 232.859 350.241 232.708C349.471 232.556 348.711 233.125 348.543 233.979L346.103 246.345L334.955 244.146C334.185 243.994 333.425 244.563 333.257 245.417C333.088 246.271 333.576 247.086 334.345 247.238L346.887 249.712ZM276.965 133.621L345.991 249.065L348.393 247.267L279.367 131.824L276.965 133.621Z" fill="#B7D019"/>
<path d="M136.939 344.939C136.354 345.525 136.354 346.475 136.939 347.061L146.485 356.607C147.071 357.192 148.021 357.192 148.607 356.607C149.192 356.021 149.192 355.071 148.607 354.485L140.121 346L148.607 337.515C149.192 336.929 149.192 335.979 148.607 335.393C148.021 334.808 147.071 334.808 146.485 335.393L136.939 344.939ZM287 344.5H138V347.5H287V344.5Z" fill="white"/>
</g>
<defs>
<radialGradient id="paint0_radial_7_13692" cx="0" cy="0" r="1" gradientUnits="userSpaceOnUse" gradientTransform="translate(372.845 280.624) scale(55.7568 55.8573)">
<stop offset="0.4585" stop-color="#F5F5F5"/>
<stop offset="1" stop-color="#D0D8DC"/>
</radialGradient>
<linearGradient id="paint1_linear_7_13692" x1="373.388" y1="348" x2="373.388" y2="311.085" gradientUnits="userSpaceOnUse">
<stop stop-color="#212E26"/>
<stop offset="0.5046" stop-color="#334038"/>
<stop offset="0.9089" stop-color="#48534C"/>
</linearGradient>
<linearGradient id="paint2_linear_7_13692" x1="373.388" y1="311.085" x2="373.388" y2="346.943" gradientUnits="userSpaceOnUse">
<stop offset="0.6085" stop-color="#4B564F" stop-opacity="0"/>
<stop offset="1" stop-color="#4B564F"/>
</linearGradient>
<radialGradient id="paint3_radial_7_13692" cx="0" cy="0" r="1" gradientUnits="userSpaceOnUse" gradientTransform="translate(373.167 327.911) rotate(89.6212) scale(58.2981 45.3029)">
<stop offset="0.7437" stop-color="#BFBEBE" stop-opacity="0"/>
<stop offset="1" stop-color="#BFBEBE" stop-opacity="0.3"/>
</radialGradient>
<clipPath id="clip0_7_13692">
<rect width="436" height="396" fill="white"/>
</clipPath>
</defs>
</svg>
