<svg width="90" height="88" viewBox="0 0 90 88" fill="none" xmlns="http://www.w3.org/2000/svg">
<path d="M7.56915 26.2512C7.56915 26.2512 -0.690645 40.7622 0.0465681 53.1519C0.783781 65.5416 4.07115 68.6109 11.9097 72.3195C19.7482 76.0281 19.8535 35.0451 19.8535 35.0451L7.56915 26.2512Z" fill="#FFD2B1"/>
<path d="M81.3808 24.3479L70.5107 36.4217C70.5107 36.4217 72.2785 73.1695 74.0764 73.4855C75.8743 73.8014 84.9841 69.8822 87.8427 64.0597C90.7013 58.2372 89.4525 48.4879 88.7981 45.1028C87.5267 38.5355 81.3808 24.3479 81.3808 24.3479Z" fill="#FFD2B1"/>
<path d="M44.8135 2.42714C36.975 2.32935 29.7081 4.86446 29.7081 4.86446C29.7081 4.86446 16.5737 -4.66666 7.67448 2.95372C-3.43638 12.4848 6.40316 26.4618 7.25321 27.4172C8.10327 28.3725 11.9097 37.3696 11.9097 37.3696C11.9097 37.3696 9.57769 46.4794 9.47238 52.8285C9.32192 61.7352 11.2703 72.0336 11.2703 72.0336C11.2703 72.0336 14.9789 73.6961 18.3641 74.8546C21.0872 75.7874 22.8099 76.0206 23.7653 76.7578C24.7207 77.5025 30.8591 86.0783 38.0657 87.2443C44.4223 88.2749 54.5853 87.5602 60.0919 81.7378C64.312 77.2769 65.1771 76.1259 65.9143 75.7046C66.6591 75.2834 75.9419 73.1996 75.9419 73.1996C75.9419 73.1996 79.1541 57.5978 79.1541 50.8199C79.1541 44.0421 78.304 38.6409 78.304 38.6409L81.9074 29.3204C81.9074 29.3204 93.5598 14.3881 82.8627 5.2782C73.0157 -3.10948 61.8973 5.9101 61.8973 5.9101C61.8973 5.9101 53.2839 2.53246 44.8135 2.42714Z" fill="#FF8E01"/>
<path d="M10.849 8.14429C17.2056 2.62271 22.6068 8.03897 22.6068 8.56555C22.6068 8.82132 18.9057 10.9953 15.9343 13.7561C12.7748 16.6899 10.33 20.218 10.0065 20.218C9.36706 20.218 5.23716 13.0189 10.849 8.14429Z" fill="#FF6011"/>
<path d="M78.8456 9.62624C74.9339 6.02293 68.5698 9.09966 68.3591 9.62624C68.2538 9.88954 71.7443 12.2968 74.3923 14.9221C77.138 17.6453 79.47 20.692 79.6882 20.7446C80.1094 20.8499 84.134 14.5009 78.8456 9.62624Z" fill="#FF6011"/>
<path d="M26.4208 61.5171C26.4208 61.5171 26.2026 83.0241 43.5798 82.4825C64.0186 81.8506 61.2654 62.4649 61.2654 62.4649L26.4208 61.5171Z" fill="#FFD2B1"/>
<path d="M44.2117 56.8606C44.2117 56.8606 30.2347 64.165 30.34 63.7437C30.3927 63.5406 33.823 66.1886 37.3962 69.0096C41.3004 72.0938 51.5086 69.8671 51.5086 69.8671L58.1962 63.8415L44.2117 56.8606Z" fill="#FEA7A5"/>
<path d="M45.0617 44.0421C45.0617 44.0421 28.1209 35.8876 22.3962 43.8315C16.6715 51.7753 22.3962 59.9298 26.4208 61.5171C30.4453 63.1043 36.8019 68.6109 36.8019 68.6109C36.8019 68.6109 37.8626 66.3842 37.7573 65.331C37.652 64.2703 36.9072 60.9905 36.9072 60.9905L44.2117 56.8606L50.1395 62.2618C50.1395 62.2618 49.2894 67.663 49.7182 68.2949C50.147 68.9268 53.4268 67.5502 53.4268 67.5502L55.1194 62.2543C55.1194 62.2543 59.1816 62.006 61.8296 61.6901C64.4775 61.3741 70.0518 57.7031 69.4199 51.2412C68.788 44.7793 62.958 41.0782 58.5121 41.1835C54.0587 41.2888 45.0617 44.0421 45.0617 44.0421Z" fill="white"/>
<path d="M64.8612 60.9905C64.4249 59.9072 57.2333 59.6139 52.5768 56.8606C47.6871 53.9719 48.0256 50.6093 48.0256 50.6093C48.0256 50.6093 51.5462 48.8114 54.6982 46.4794C57.8501 44.1474 60.5583 41.334 59.6781 39.8069C57.5944 36.2036 50.9971 40.9729 44.7458 40.6569C38.7052 40.3485 30.7463 36.685 29.3922 38.6484C27.9629 40.7171 30.7839 43.9293 34.1615 46.3816C37.5392 48.834 41.4659 50.5115 41.4659 50.5115C41.4659 50.5115 41.4659 54.7467 36.0647 57.0787C30.0316 59.6816 24.3445 59.5161 23.991 59.832C22.9303 60.7874 24.3897 61.833 25.5782 62.2693C26.7442 62.6906 28.0156 62.6906 28.0156 62.6906C28.0156 62.6906 28.9709 70.9504 44.2192 71.2663C59.0462 71.5748 59.5728 63.8566 59.5728 63.8566C59.5728 63.8566 61.0548 63.5406 62.4615 63.0216C63.8682 62.5025 65.1771 61.7804 64.8612 60.9905ZM44.0011 67.7683C35.2147 67.663 32.2433 63.6384 32.2433 63.6384C32.2433 63.6384 35.5231 63.6384 37.8551 63.1119C40.7363 62.4574 44.1064 59.6139 44.1064 59.6139C44.1064 59.6139 46.8521 62.5025 49.1916 63.3225C51.313 64.0672 55.2248 64.4885 55.2248 64.4885C55.2248 64.4885 52.7874 67.8737 44.0011 67.7683Z" fill="#2F2F2F"/>
<path d="M32.5592 27.1012C32.5592 29.7041 30.3175 31.863 27.6846 32.2918C25.0893 32.7131 22.7046 30.4413 22.8099 26.9959C22.8927 24.3931 25.1269 22.7607 27.7899 22.7607C30.4529 22.7607 32.5592 24.2953 32.5592 27.1012Z" fill="#2F2F2F"/>
<path d="M61.8973 32.0812C59.4299 31.2462 57.9479 29.1324 58.5723 26.1384C59.2494 22.866 61.5362 21.5571 64.7559 22.7607C67.1932 23.671 68.3366 26.7552 67.5618 29.2979C66.8773 31.5471 64.5528 32.9764 61.8973 32.0812Z" fill="#2F2F2F"/>
<path d="M73.2639 26.7477C72.2333 27.9137 69.3522 27.0035 68.9535 28.5832C68.3893 30.84 74.3923 32.8184 76.5814 29.9222C78.7704 27.0261 76.303 20.5717 74.2494 21.9408C72.9856 22.7908 74.3246 25.5441 73.2639 26.7477Z" fill="#2F2F2F"/>
<path d="M78.8457 24.6263C78.0483 24.9498 78.9886 27.5225 79.3422 29.501C79.6957 31.4794 79.3422 34.7969 78.2138 36.1359C77.0854 37.4749 76.0247 37.1213 76.0247 37.1213C76.0247 37.1213 73.3467 32.2918 71.9324 34.2252C70.5934 36.0607 73.4821 36.3465 73.136 39.9423C72.7825 43.5456 70.2925 45.336 72.8502 45.8701C74.1892 46.156 75.5358 43.681 75.5358 43.681C75.5358 43.681 79.9139 43.7487 82.103 38.5958C83.7504 34.7216 82.7349 31.8179 81.96 28.854C81.1852 25.8901 79.1917 24.4909 78.8457 24.6263Z" fill="#2F2F2F"/>
<path d="M79.2669 47.856C76.5814 50.8199 72.632 54.1374 72.3461 54.9874C72.0603 55.8375 72.0603 57.8084 75.9495 57.1765C79.8386 56.5446 83.5021 52.9413 84.6681 50.7146C86.1952 47.8034 86.7519 42.9137 85.9018 41.1459C85.0518 39.3781 83.5021 40.2281 83.0057 41.7101C82.5167 43.1996 80.29 46.7276 79.2669 47.856Z" fill="#2F2F2F"/>
<path d="M17.9804 24.9799C17.9127 23.2121 19.673 21.6624 18.6123 20.7447C17.2056 19.526 13.3841 22.8661 14.5878 26.8906C15.7914 30.9152 20.5456 30.4187 21.328 29.7868C22.6369 28.7261 21.674 27.7858 20.9744 27.4548C19.8912 26.9433 18.0481 26.7026 17.9804 24.9799Z" fill="#2F2F2F"/>
<path d="M14.4523 35.361C14.4523 35.361 16.0772 32.6755 17.4162 33.8114C18.7553 34.9398 15.7914 36.8505 16.1449 40.0928C16.4985 43.335 18.334 45.7422 17.4162 46.66C16.1449 47.9313 14.1665 45.2457 13.5346 44.2603C12.9027 43.2748 12.4739 41.9283 12.4739 41.9283C12.4739 41.9283 8.09576 38.3249 7.32093 33.8791C6.71913 30.4413 7.6745 26.4693 9.78834 24.5586C11.2327 23.2572 11.9624 23.2723 12.5416 23.8515C13.3917 24.7015 11.1274 28.0867 11.9097 31.4042C12.6845 34.7292 14.4523 35.361 14.4523 35.361Z" fill="#2F2F2F"/>
<path d="M11.4207 48.2096C9.47991 45.7874 6.01952 40.1078 4.71059 40.5817C3.16094 41.1459 3.43928 48.503 7.1103 52.7232C11.7668 58.0868 17.7698 58.0191 18.4769 55.83C18.996 54.2202 14.8059 52.4449 11.4207 48.2096Z" fill="#2F2F2F"/>
<path d="M40.3977 2.58514C40.3977 2.58514 40.9243 6.39909 36.7418 7.61775C32.5592 8.83641 30.0166 7.28676 30.1745 10.687C30.2573 12.3796 32.0627 13.2221 33.8832 13.3349C35.7036 13.4478 37.5091 12.7707 38.487 12.3796C40.6084 11.5295 43.9935 7.34694 44.5728 7.24162C45.152 7.13631 46.9574 10.1002 50.6059 11.6875C52.2759 12.4096 54.3973 13.019 56.0221 12.8008C57.7298 12.5751 59.1591 11.4242 59.0237 9.1975C58.9334 7.51244 56.4961 8.35497 52.4715 7.08365C48.4469 5.81233 49.0111 2.70551 49.0111 2.70551C49.0111 2.70551 46.0096 2.41965 44.5276 2.41965C43.0457 2.42717 40.3977 2.58514 40.3977 2.58514Z" fill="#2F2F2F"/>
<path d="M44.7909 10.8449C43.9634 10.8299 41.985 13.4929 40.1344 14.3956C38.2839 15.2983 34.312 15.5089 33.8305 17.2015C33.3566 18.8941 34.8385 20.9101 38.8631 20.376C43.0306 19.8269 44.4223 16.5621 44.9489 16.5094C45.4755 16.4568 47.1756 20.3234 51.7267 20.692C55.646 21.0079 56.7217 17.6754 55.488 16.5621C53.7955 15.0275 50.7789 14.6589 49.2894 13.9668C47.5291 13.1468 45.5357 10.86 44.7909 10.8449Z" fill="#2F2F2F"/>
</svg>
