<svg width="1978" height="1586" viewBox="0 0 1978 1586" fill="none" xmlns="http://www.w3.org/2000/svg">
<path fill-rule="evenodd" clip-rule="evenodd" d="M17.513 1.03063C11.1769 -1.71031 3.81845 1.20415 1.07751 7.54027C-0.772366 11.8165 -0.0462271 16.5585 2.56923 20.0323C3.23828 28.2023 4.43294 38.7451 5.80526 50.8558C8.321 73.057 11.4338 100.527 13 128.307V1585.2H1955V179.019C1956.78 170.811 1958.89 162.688 1961.11 154.177L1961.11 154.172C1968.93 124.163 1978 89.334 1978 29C1978 11.865 1971.98 3.58243 1961.14 1.88022C1957.78 -0.20037 1953.49 -0.657531 1949.59 1.03063C1948.27 1.5988 1946.87 2.24476 1945.4 2.9599C1917.24 9.36679 1872.96 36.7397 1821.07 68.8212L1821.07 68.8226C1820.78 68.9977 1820.5 69.1729 1820.22 69.3482C1798.5 78.1986 1777.79 84.0122 1760.35 84.0122C1746.83 84.0122 1732.6 79.6086 1717.27 72.1461C1701.9 64.6678 1686.38 54.6149 1670.05 44.0218L1669.7 43.7929C1653.77 33.4523 1637.05 22.6027 1620.17 14.3899C1603.14 6.10074 1584.99 0.00318527 1566.15 0.00318527C1547.31 0.00318527 1529.16 6.10074 1512.13 14.3899C1495.25 22.6027 1478.53 33.4523 1462.6 43.7929L1462.25 44.0218C1445.92 54.6149 1430.4 64.6678 1415.03 72.1461C1399.7 79.6086 1385.47 84.0122 1371.95 84.0122C1358.43 84.0122 1344.2 79.6086 1328.87 72.1461C1313.5 64.6678 1297.98 54.6149 1281.65 44.0218L1281.3 43.7929C1265.37 33.4523 1248.65 22.6027 1231.77 14.3899C1214.74 6.10074 1196.59 0.00318527 1177.75 0.00318527C1158.91 0.00318527 1140.76 6.10074 1123.73 14.3899C1106.85 22.6027 1090.13 33.4523 1074.2 43.7929L1073.85 44.0218C1057.52 54.6149 1042 64.6678 1026.63 72.1461C1011.3 79.6086 997.074 84.0122 983.55 84.0122C970.026 84.0122 955.804 79.6086 940.47 72.1461C925.103 64.6678 909.579 54.6149 893.254 44.0218L892.9 43.7924C876.965 33.452 860.245 22.6026 843.37 14.3899C826.337 6.10074 808.192 0.00318527 789.35 0.00318527C770.507 0.00318527 752.363 6.10074 735.33 14.3899C718.455 22.6026 701.735 33.452 685.799 43.7924L685.446 44.0218C669.121 54.6149 653.596 64.6678 638.23 72.1461C622.896 79.6086 608.674 84.0122 595.15 84.0122C581.626 84.0122 567.404 79.6086 552.07 72.1461C536.703 64.6678 521.179 54.6149 504.854 44.0218L504.501 43.7926C488.565 33.4521 471.845 22.6026 454.97 14.3899C437.937 6.10074 419.793 0.00318527 400.95 0.00318527C382.107 0.00318527 363.963 6.10074 346.93 14.3899C330.055 22.6026 313.335 33.4521 297.399 43.7926L297.046 44.0218C280.721 54.6149 265.197 64.6678 249.83 72.1461C234.496 79.6086 220.274 84.0122 206.75 84.0122C177.834 84.0122 139.885 68.022 103.355 48.7077C86.3839 39.7346 70.2839 30.3649 56.1344 22.1304L53.7311 20.7318C39.3603 12.3715 26.454 4.89844 17.513 1.03063Z" fill="#FEC0FF"/>
</svg>
