<svg width="1920" height="741" viewBox="0 0 1920 741" fill="none" xmlns="http://www.w3.org/2000/svg">
<path fill-rule="evenodd" clip-rule="evenodd" d="M1944.56 9.44149C1947.11 10.6515 1949.66 12.0168 1952.19 13.5437C2041.91 67.4953 1995.65 80.5583 1944.83 94.9112C1940.7 96.0748 1936.55 97.2469 1932.44 98.45V949.236H-298.233V227.623C-329.912 219.214 -354 177.015 -354 126.222C-354 71.9376 -341.32 9.8909 -307.766 4.41345C-304.51 0.576936 -299.106 -1.05836 -294.077 0.714528C-284.021 4.25976 -269.379 11.1633 -252.796 19.0252L-250.025 20.3392L-250.025 20.3392C-233.78 28.0436 -215.242 36.8358 -195.695 45.2583C-153.858 63.2847 -109.508 78.6427 -75.1654 78.6427C-41.7008 78.6427 -7.43719 60.8475 30.5251 40.7729L32.1114 39.934C68.0822 20.9079 107.604 0.00340637 147.902 0.00340637C188.2 0.00340637 227.723 20.9079 263.693 39.9341L265.279 40.7729C303.242 60.8475 337.505 78.6427 370.97 78.6427C404.435 78.6427 438.698 60.8475 476.66 40.7729L478.247 39.9341C514.217 20.9079 553.74 0.00340637 594.038 0.00340637C634.336 0.00340637 673.858 20.9079 709.829 39.9341L711.415 40.7729C749.377 60.8475 783.641 78.6427 817.105 78.6427C850.57 78.6427 884.833 60.8475 922.796 40.7729L924.382 39.9341C960.353 20.9079 999.875 0.00340637 1040.17 0.00340637C1080.47 0.00340637 1119.99 20.9079 1155.96 39.9341L1157.55 40.7729C1195.51 60.8475 1229.78 78.6427 1263.24 78.6427C1296.71 78.6427 1330.97 60.8475 1368.93 40.7729L1370.52 39.9341C1406.49 20.9079 1446.01 0.00340637 1486.31 0.00340637C1526.61 0.00340637 1566.13 20.9079 1602.1 39.9341L1603.69 40.7729C1641.65 60.8475 1675.91 78.6427 1709.38 78.6427C1723.67 78.6427 1739.7 75.9818 1756.56 71.5752C1765.29 66.498 1773.71 61.5301 1781.83 56.7335C1839.95 22.4159 1883.23 -3.13453 1922.85 2.77338C1924.78 1.99996 1926.6 1.30989 1928.29 0.714528C1934.8 -1.58077 1941.94 1.83659 1944.23 8.34741C1944.36 8.71046 1944.47 9.07547 1944.56 9.44149Z" fill="#FEC0FF"/>
</svg>
